<svg width="5119" height="2046" viewBox="0 0 5119 2046" fill="none" xmlns="http://www.w3.org/2000/svg">
<path d="M301.579 1680.87C261.722 1680.87 223.276 1673.27 186.243 1658.06C149.21 1642.54 116.571 1620.52 88.3251 1592.01C60.0795 1563.5 38.2676 1530.55 22.8895 1493.17C7.82513 1455.79 0.292969 1416.98 0.292969 1376.74C0.292969 1336.51 7.82513 1297.7 22.8895 1260.32C38.2676 1222.94 60.0795 1189.99 88.3251 1161.48C116.571 1132.96 149.21 1111.1 186.243 1095.9C223.276 1080.37 261.722 1072.61 301.579 1072.61C341.437 1072.61 379.883 1080.37 416.916 1095.9C453.949 1111.1 486.588 1132.96 514.834 1161.48C543.079 1189.99 564.734 1222.94 579.799 1260.32C595.177 1297.7 602.866 1336.51 602.866 1376.74C602.866 1416.98 595.177 1455.79 579.799 1493.17C564.734 1530.55 543.079 1563.5 514.834 1592.01C486.588 1620.52 453.949 1642.54 416.916 1658.06C379.883 1673.27 341.437 1680.87 301.579 1680.87ZM301.579 1559.22C351.48 1559.22 394.005 1541.48 429.155 1506C464.619 1470.2 482.351 1427.12 482.351 1376.74C482.351 1326.37 464.619 1283.44 429.155 1247.96C394.005 1212.16 351.48 1194.26 301.579 1194.26C251.679 1194.26 208.997 1212.16 173.533 1247.96C138.383 1283.44 120.808 1326.37 120.808 1376.74C120.808 1427.12 138.383 1470.2 173.533 1506C208.997 1541.48 251.679 1559.22 301.579 1559.22Z" fill="white"/>
<path d="M652.766 1194.26V1072.61H954.053C1003.95 1072.61 1046.48 1090.51 1081.63 1126.31C1117.09 1161.79 1134.82 1204.72 1134.82 1255.09C1134.82 1305.46 1117.09 1348.55 1081.63 1384.35C1046.48 1419.83 1003.95 1437.57 954.053 1437.57H773.281V1680.87H652.766V1315.92H954.053C970.686 1315.92 984.809 1310.06 996.421 1298.33C1008.35 1286.3 1014.31 1271.88 1014.31 1255.09C1014.31 1238.3 1008.35 1224.04 996.421 1212.32C984.809 1200.28 970.686 1194.26 954.053 1194.26H652.766Z" fill="white"/>
<path d="M1165.42 1194.26V1072.61H1587.23V1194.26H1165.42ZM1587.23 1315.92V1437.57H1285.94V1559.22H1587.23V1680.87H1165.42V1315.92H1587.23Z" fill="white"/>
<path d="M1804.25 1338.73V1680.87H1683.73V1042.2L2045.27 1414.76V1072.61H2165.79V1711.29L1804.25 1338.73Z" fill="white"/>
<path d="M2647.85 1437.57V1680.87H2527.33V1072.61H2647.85V1315.92H2888.88V1072.61H3009.39V1680.87H2888.88V1437.57H2647.85Z" fill="white"/>
<path d="M3365.76 1680.87C3325.9 1680.87 3287.45 1673.27 3250.42 1658.06C3213.39 1642.54 3180.75 1620.52 3152.5 1592.01C3124.26 1563.5 3102.45 1530.55 3087.07 1493.17C3072 1455.79 3064.47 1416.98 3064.47 1376.74C3064.47 1336.51 3072 1297.7 3087.07 1260.32C3102.45 1222.94 3124.26 1189.99 3152.5 1161.48C3180.75 1132.96 3213.39 1111.1 3250.42 1095.9C3287.45 1080.37 3325.9 1072.61 3365.76 1072.61C3405.61 1072.61 3444.06 1080.37 3481.09 1095.9C3518.13 1111.1 3550.77 1132.96 3579.01 1161.48C3607.26 1189.99 3628.91 1222.94 3643.98 1260.32C3659.35 1297.7 3667.04 1336.51 3667.04 1376.74C3667.04 1416.98 3659.35 1455.79 3643.98 1493.17C3628.91 1530.55 3607.26 1563.5 3579.01 1592.01C3550.77 1620.52 3518.13 1642.54 3481.09 1658.06C3444.06 1673.27 3405.61 1680.87 3365.76 1680.87ZM3365.76 1559.22C3415.66 1559.22 3458.18 1541.48 3493.33 1506C3528.8 1470.2 3546.53 1427.12 3546.53 1376.74C3546.53 1326.37 3528.8 1283.44 3493.33 1247.96C3458.18 1212.16 3415.66 1194.26 3365.76 1194.26C3315.86 1194.26 3273.17 1212.16 3237.71 1247.96C3202.56 1283.44 3184.98 1326.37 3184.98 1376.74C3184.98 1427.12 3202.56 1470.2 3237.71 1506C3273.17 1541.48 3315.86 1559.22 3365.76 1559.22Z" fill="white"/>
<path d="M3720.24 1437.57V1072.61H3840.75V1437.57C3840.75 1471.15 3852.52 1499.82 3876.06 1523.58C3899.6 1547.34 3928 1559.22 3961.27 1559.22C3994.54 1559.22 4022.94 1547.34 4046.48 1523.58C4070.01 1499.82 4081.78 1471.15 4081.78 1437.57V1072.61H4202.3V1437.57C4202.3 1469.88 4196.18 1500.93 4183.94 1530.71C4171.7 1560.49 4154.28 1586.78 4131.68 1609.59C4109.09 1632.4 4083.04 1649.99 4053.54 1662.34C4024.04 1674.7 3993.28 1680.87 3961.27 1680.87C3929.26 1680.87 3898.5 1674.7 3869 1662.34C3839.5 1649.99 3813.45 1632.4 3790.85 1609.59C3768.26 1586.78 3750.84 1560.49 3738.6 1530.71C3726.36 1500.93 3720.24 1469.88 3720.24 1437.57Z" fill="white"/>
<path d="M4303.51 1520.26C4307.59 1526.27 4320.77 1535.15 4343.05 1546.87C4367.85 1559.86 4394.52 1566.83 4423.08 1567.78H4427.32C4445.84 1567.78 4464.2 1563.97 4482.4 1556.37C4500.6 1548.77 4510.02 1535.15 4510.65 1515.5V1513.6C4510.65 1497.76 4503.43 1483.98 4488.99 1472.26C4474.87 1460.22 4458.08 1448.82 4438.62 1438.04C4419.16 1427.27 4398.92 1416.98 4377.89 1407.16C4352.47 1395.75 4329.4 1381.97 4308.69 1365.81C4288.29 1349.66 4272.13 1330.97 4260.2 1309.74C4249.53 1289.78 4244.2 1266.65 4244.2 1240.36V1233.71C4245.14 1200.44 4255.34 1171.14 4274.79 1145.79C4294.25 1120.13 4320.14 1100.33 4352.47 1086.39C4382.6 1073.09 4415.08 1066.43 4449.92 1066.43H4456.98C4502.49 1068.02 4541.09 1078.63 4572.79 1098.27C4587.54 1107.46 4597.58 1114.91 4602.91 1120.61L4548.31 1222.78C4546.11 1219.61 4534.34 1213.43 4513 1204.24C4491.66 1195.06 4472.36 1190.3 4455.1 1189.99H4451.33C4432.5 1189.99 4415.87 1194.74 4401.43 1204.24C4386.99 1213.43 4379.46 1226.42 4378.83 1243.21V1244.16C4378.83 1261.27 4386.52 1274.42 4401.9 1283.6C4417.59 1292.79 4436.89 1302.14 4459.8 1311.64C4471.42 1316.39 4484.44 1322.09 4498.88 1328.75C4530.26 1342.69 4557.41 1358.84 4580.32 1377.22C4603.23 1395.59 4620.49 1416.19 4632.1 1439C4643.09 1460.54 4648.58 1484.61 4648.58 1511.23V1515.5C4647.32 1552.57 4636.02 1584.25 4614.68 1610.54C4593.66 1636.84 4566.04 1656.96 4531.83 1670.9C4500.13 1683.88 4466.08 1690.38 4429.67 1690.38H4419.79C4370.2 1688.79 4325.79 1677.55 4286.56 1656.64C4267.11 1646.18 4253.45 1637 4245.61 1629.08L4303.51 1520.26Z" fill="white"/>
<path d="M4696.6 1194.26V1072.61H5118.4V1194.26H4696.6ZM5118.4 1315.92V1437.57H4817.11V1559.22H5118.4V1680.87H4696.6V1315.92H5118.4Z" fill="white"/>
<path d="M705.114 687.834C689.319 717.075 670.365 744.101 648.252 768.911C612.713 808.786 571.646 839.578 525.051 861.287C478.456 882.554 430.084 893.187 379.935 893.187C329.786 893.187 281.414 882.554 234.819 861.287C188.224 839.578 147.157 808.786 111.618 768.911C76.0794 729.037 48.6357 682.96 29.2869 630.68C10.3329 578.4 0.855922 524.127 0.855922 467.86C0.855922 411.592 10.3329 357.319 29.2869 305.039C48.6357 252.759 76.0794 206.682 111.618 166.808C147.157 126.934 188.224 96.3632 234.819 75.0968C281.414 53.3874 329.786 42.5327 379.935 42.5327C430.084 42.5327 478.456 53.3874 525.051 75.0968C571.646 96.3632 612.713 126.934 648.252 166.808C677.868 200.037 701.757 237.474 719.922 279.121L584.282 354.218C573.621 330.293 559.208 307.919 541.044 287.096C496.423 237.474 442.72 212.664 379.935 212.664C317.15 212.664 263.447 237.696 218.826 287.76C174.601 337.382 152.488 397.415 152.488 467.86C152.488 538.304 174.601 598.559 218.826 648.624C263.447 698.245 317.15 723.056 379.935 723.056C442.72 723.056 496.423 698.024 541.044 647.959C554.469 632.895 565.723 616.946 574.805 600.11L705.114 687.834Z" fill="white"/>
<path d="M668.983 893.187L1010.15 0L1351.33 893.187H1190.22L1010.15 435.96L830.091 893.187H668.983Z" fill="white"/>
<path d="M1532.57 531.659V893.187H1380.94V0L1760.02 595.458L2139.1 0V893.187H1987.47V531.659L1760.02 893.187L1532.57 531.659Z" fill="white"/>
<path d="M2412.15 552.925V723.056H2639.6C2660.53 723.056 2678.3 714.86 2692.91 698.467C2707.92 681.631 2715.42 661.472 2715.42 637.99C2715.42 614.509 2707.92 594.572 2692.91 578.179C2678.3 561.343 2660.53 552.925 2639.6 552.925H2412.15ZM2260.52 212.664V42.5327H2639.6C2702.39 42.5327 2755.89 67.565 2800.12 117.63C2844.74 167.251 2867.05 227.284 2867.05 297.729C2867.05 363.3 2847.7 420.01 2809 467.86C2847.7 515.709 2867.05 572.419 2867.05 637.99C2867.05 708.435 2844.74 768.69 2800.12 818.754C2755.89 868.376 2702.39 893.187 2639.6 893.187H2260.52V382.794H2639.6C2660.53 382.794 2678.3 374.598 2692.91 358.205C2707.92 341.369 2715.42 321.211 2715.42 297.729C2715.42 274.247 2707.92 254.31 2692.91 237.917C2678.3 221.081 2660.53 212.664 2639.6 212.664H2260.52Z" fill="white"/>
<path d="M2942.87 212.664V42.5327H3321.94C3384.73 42.5327 3438.23 67.565 3482.46 117.63C3527.08 167.251 3549.39 227.284 3549.39 297.729C3549.39 368.174 3527.08 428.428 3482.46 478.493C3438.23 528.114 3384.73 552.925 3321.94 552.925H3284.04L3549.39 893.187H3350.38L3094.5 574.191V893.187H2942.87V382.794H3321.94C3342.87 382.794 3360.64 374.598 3375.25 358.205C3390.26 341.369 3397.76 321.211 3397.76 297.729C3397.76 274.247 3390.26 254.31 3375.25 237.917C3360.64 221.081 3342.87 212.664 3321.94 212.664H2942.87Z" fill="white"/>
<path d="M3769.73 893.187H3618.1V42.5327H3769.73V893.187Z" fill="white"/>
<path d="M3799.35 893.187L4140.52 0L4481.69 893.187H4320.58L4140.52 435.96L3960.46 893.187H3799.35Z" fill="white"/>
<path d="M4662.94 414.694V893.187H4511.31V0L4966.2 521.026V42.5327H5117.83V935.719L4662.94 414.694Z" fill="white"/>
<path d="M3902.36 2037.06H3867.68V1863.66H3902.36V2037.06Z" fill="white"/>
<path d="M3964.81 1939.52V2037.06H3930.13V1854.99L4034.17 1961.2V1863.66H4068.84V2045.72L3964.81 1939.52Z" fill="white"/>
<path d="M4223.27 1863.66V1898.34H4171.25V2037.06H4136.58V1898.34H4084.56V1863.66H4223.27Z" fill="white"/>
<path d="M4239.53 1898.34V1863.66H4360.9V1898.34H4239.53ZM4360.9 1933.02V1967.7H4274.21V2002.38H4360.9V2037.06H4239.53V1933.02H4360.9Z" fill="white"/>
<path d="M4547.57 1950.36C4547.57 1961.83 4545.4 1972.89 4541.06 1983.55C4536.64 1994.2 4530.36 2003.6 4522.24 2011.72C4514.11 2019.85 4504.72 2026.13 4494.06 2030.55C4483.4 2034.89 4472.34 2037.06 4460.87 2037.06C4449.4 2037.06 4438.34 2034.89 4427.68 2030.55C4417.03 2026.13 4407.64 2019.85 4399.51 2011.72C4391.38 2003.6 4385.1 1994.2 4380.68 1983.55C4376.34 1972.89 4374.18 1961.83 4374.18 1950.36C4374.18 1938.89 4376.34 1927.83 4380.68 1917.17C4385.1 1906.52 4391.38 1897.12 4399.51 1889C4407.64 1880.87 4417.03 1874.64 4427.68 1870.3C4438.34 1865.88 4449.4 1863.66 4460.87 1863.66C4472.34 1863.66 4483.4 1865.88 4494.06 1870.3C4504.72 1874.64 4514.11 1880.87 4522.24 1889C4528.29 1895.05 4533.25 1901.73 4537.14 1909.04L4506.79 1925.57C4504.44 1921.33 4501.42 1917.31 4497.72 1913.51C4487.51 1903.4 4475.23 1898.34 4460.87 1898.34C4446.51 1898.34 4434.23 1903.44 4424.03 1913.65C4413.91 1923.76 4408.85 1936 4408.85 1950.36C4408.85 1964.72 4413.91 1977 4424.03 1987.21C4434.23 1997.32 4446.51 2002.38 4460.87 2002.38C4475.23 2002.38 4487.51 1997.27 4497.72 1987.07C4503.5 1981.29 4507.61 1974.83 4510.04 1967.7H4460.87V1933.02H4547.57V1950.36Z" fill="white"/>
<path d="M4561.93 1898.34V1863.66H4648.62C4662.98 1863.66 4675.22 1868.77 4685.33 1878.97C4695.54 1889.09 4700.64 1901.32 4700.64 1915.68C4700.64 1930.04 4695.54 1942.32 4685.33 1952.53C4675.22 1962.64 4662.98 1967.7 4648.62 1967.7H4639.95L4700.64 2037.06H4655.12L4596.6 1972.03V2037.06H4561.93V1933.02H4648.62C4653.41 1933.02 4657.47 1931.35 4660.81 1928.01C4664.24 1924.58 4665.96 1920.47 4665.96 1915.68C4665.96 1910.9 4664.24 1906.83 4660.81 1903.49C4657.47 1900.06 4653.41 1898.34 4648.62 1898.34H4561.93Z" fill="white"/>
<path d="M4705.11 2037.06L4783.14 1854.99L4861.16 2037.06H4824.32L4783.14 1943.86L4741.95 2037.06H4705.11Z" fill="white"/>
<path d="M4972.1 1863.66V1898.34H4920.09V2037.06H4885.41V1898.34H4833.39V1863.66H4972.1Z" fill="white"/>
<path d="M4988.36 1898.34V1863.66H5109.73V1898.34H4988.36ZM5109.73 1933.02V1967.7H5023.04V2002.38H5109.73V2037.06H4988.36V1933.02H5109.73Z" fill="white"/>
<path d="M8.85606 1897.1V1862.42H130.23V1897.1H8.85606ZM130.23 1931.78V1966.45H43.5343V2001.13H130.23V2035.81H8.85606V1931.78H130.23Z" fill="white"/>
<path d="M158 1862.42H192.678V2001.13H279.373V2035.81H158V1862.42Z" fill="white"/>
<path d="M295.087 1897.1V1862.42H416.461V1897.1H295.087ZM416.461 1931.78V1966.45H329.765V2001.13H416.461V2035.81H295.087V1931.78H416.461Z" fill="white"/>
<path d="M423.234 1862.42H460.079L501.26 1955.62L542.44 1862.42H579.286L501.26 2044.48L423.234 1862.42Z" fill="white"/>
<path d="M551.516 2035.81L629.542 1853.75L707.568 2035.81H670.722L629.542 1942.61L588.362 2035.81H551.516Z" fill="white"/>
<path d="M818.511 1862.42V1897.1H766.494V2035.81H731.816V1897.1H679.798V1862.42H818.511Z" fill="white"/>
<path d="M834.767 1897.1V1862.42H956.141V1897.1H834.767ZM956.141 1931.78V1966.45H869.445V2001.13H956.141V2035.81H834.767V1931.78H956.141Z" fill="white"/>
<path d="M2094.73 2037.06H2060.06V1863.66H2094.73V2037.06Z" fill="white"/>
<path d="M2157.18 1939.52V2037.06H2122.5V1854.99L2226.54 1961.2V1863.66H2261.22V2045.72L2157.18 1939.52Z" fill="white"/>
<path d="M2323.67 1939.52V2037.06H2288.99V1854.99L2393.02 1961.2V1863.66H2427.7V2045.72L2323.67 1939.52Z" fill="white"/>
<path d="M2530.24 2037.06C2518.78 2037.06 2507.71 2034.89 2497.06 2030.55C2486.4 2026.13 2477.01 2019.85 2468.88 2011.72C2460.75 2003.6 2454.48 1994.2 2450.05 1983.55C2445.72 1972.89 2443.55 1961.83 2443.55 1950.36C2443.55 1938.89 2445.72 1927.83 2450.05 1917.17C2454.48 1906.52 2460.75 1897.12 2468.88 1889C2477.01 1880.87 2486.4 1874.64 2497.06 1870.3C2507.71 1865.88 2518.78 1863.66 2530.24 1863.66C2541.71 1863.66 2552.78 1865.88 2563.43 1870.3C2574.09 1874.64 2583.48 1880.87 2591.61 1889C2599.74 1897.12 2605.97 1906.52 2610.3 1917.17C2614.73 1927.83 2616.94 1938.89 2616.94 1950.36C2616.94 1961.83 2614.73 1972.89 2610.3 1983.55C2605.97 1994.2 2599.74 2003.6 2591.61 2011.72C2583.48 2019.85 2574.09 2026.13 2563.43 2030.55C2552.78 2034.89 2541.71 2037.06 2530.24 2037.06ZM2530.24 2002.38C2544.6 2002.38 2556.84 1997.32 2566.95 1987.21C2577.16 1977 2582.26 1964.72 2582.26 1950.36C2582.26 1936 2577.16 1923.76 2566.95 1913.65C2556.84 1903.44 2544.6 1898.34 2530.24 1898.34C2515.89 1898.34 2503.6 1903.44 2493.4 1913.65C2483.28 1923.76 2478.23 1936 2478.23 1950.36C2478.23 1964.72 2483.28 1977 2493.4 1987.21C2503.6 1997.32 2515.89 2002.38 2530.24 2002.38Z" fill="white"/>
<path d="M2603.53 1863.66H2640.38L2681.56 1956.86L2722.74 1863.66H2759.58L2681.56 2045.72L2603.53 1863.66Z" fill="white"/>
<path d="M2731.81 2037.06L2809.84 1854.99L2887.86 2037.06H2851.02L2809.84 1943.86L2768.66 2037.06H2731.81Z" fill="white"/>
<path d="M2998.81 1863.66V1898.34H2946.79V2037.06H2912.11V1898.34H2860.09V1863.66H2998.81Z" fill="white"/>
<path d="M3015.06 1898.34V1863.66H3136.44V1898.34H3015.06ZM3136.44 1933.02V1967.7H3049.74V2002.38H3136.44V2037.06H3015.06V1933.02H3136.44Z" fill="white"/>
<path d="M3470.06 2009.17L3484.06 2023.76L3537.12 1972.8L3588.13 2025.86L3602.71 2011.85L3551.76 1958.79L3604.81 1907.78L3590.8 1893.2L3537.7 1944.15L3486.74 1891.1L3472.15 1905.11L3523.11 1958.22L3470.06 2009.17Z" fill="white"/>
<path d="M1440.85 2001.12L1454.86 2015.71L1507.92 1964.75L1558.93 2017.81L1573.51 2003.8L1522.56 1950.75L1575.61 1899.74L1561.6 1885.15L1508.49 1936.1L1457.54 1883.05L1442.95 1897.06L1493.91 1950.17L1440.85 2001.12Z" fill="white"/>
</svg>
